<mxfile host="app.diagrams.net" agent="Mozilla/5.0 (Windows NT 10.0; Win64; x64) AppleWebKit/537.36 (KHTML, like Gecko) Chrome/129.0.0.0 Safari/537.36" version="24.7.16">
  <diagram name="Page-1" id="chOsErSH2396D1JqLV_6">
    <mxGraphModel grid="1" page="1" gridSize="10" guides="1" tooltips="1" connect="1" arrows="1" fold="1" pageScale="1" pageWidth="850" pageHeight="1100" math="0" shadow="0">
      <root>
        <mxCell id="0" />
        <mxCell id="1" parent="0" />
        <mxCell id="asDTR3eWAtD1fAQb5y70-16" style="edgeStyle=orthogonalEdgeStyle;rounded=0;orthogonalLoop=1;jettySize=auto;html=1;exitX=1;exitY=0.3333333333333333;exitDx=0;exitDy=0;exitPerimeter=0;entryX=0;entryY=0.5;entryDx=0;entryDy=0;" edge="1" parent="1" source="asDTR3eWAtD1fAQb5y70-1" target="asDTR3eWAtD1fAQb5y70-4">
          <mxGeometry relative="1" as="geometry" />
        </mxCell>
        <mxCell id="asDTR3eWAtD1fAQb5y70-1" value="User" style="shape=umlActor;verticalLabelPosition=bottom;verticalAlign=top;html=1;outlineConnect=0;" vertex="1" parent="1">
          <mxGeometry x="50" y="200" width="30" height="60" as="geometry" />
        </mxCell>
        <mxCell id="asDTR3eWAtD1fAQb5y70-9" style="edgeStyle=orthogonalEdgeStyle;rounded=0;orthogonalLoop=1;jettySize=auto;html=1;exitX=1;exitY=0.75;exitDx=0;exitDy=0;entryX=0;entryY=0.75;entryDx=0;entryDy=0;" edge="1" parent="1" source="asDTR3eWAtD1fAQb5y70-2" target="asDTR3eWAtD1fAQb5y70-5">
          <mxGeometry relative="1" as="geometry" />
        </mxCell>
        <mxCell id="asDTR3eWAtD1fAQb5y70-11" style="edgeStyle=orthogonalEdgeStyle;rounded=0;orthogonalLoop=1;jettySize=auto;html=1;exitX=0;exitY=0.75;exitDx=0;exitDy=0;entryX=1;entryY=0.25;entryDx=0;entryDy=0;" edge="1" parent="1" source="asDTR3eWAtD1fAQb5y70-2" target="asDTR3eWAtD1fAQb5y70-3">
          <mxGeometry relative="1" as="geometry" />
        </mxCell>
        <mxCell id="asDTR3eWAtD1fAQb5y70-2" value="ALE" style="rounded=1;whiteSpace=wrap;html=1;" vertex="1" parent="1">
          <mxGeometry x="330" y="180" width="120" height="120" as="geometry" />
        </mxCell>
        <mxCell id="asDTR3eWAtD1fAQb5y70-12" style="edgeStyle=orthogonalEdgeStyle;rounded=0;orthogonalLoop=1;jettySize=auto;html=1;exitX=1;exitY=1;exitDx=0;exitDy=0;entryX=0.5;entryY=1;entryDx=0;entryDy=0;" edge="1" parent="1" source="asDTR3eWAtD1fAQb5y70-3" target="asDTR3eWAtD1fAQb5y70-2">
          <mxGeometry relative="1" as="geometry" />
        </mxCell>
        <mxCell id="asDTR3eWAtD1fAQb5y70-14" style="edgeStyle=orthogonalEdgeStyle;rounded=0;orthogonalLoop=1;jettySize=auto;html=1;exitX=0.5;exitY=0;exitDx=0;exitDy=0;entryX=0.5;entryY=1;entryDx=0;entryDy=0;" edge="1" parent="1" source="asDTR3eWAtD1fAQb5y70-3" target="asDTR3eWAtD1fAQb5y70-4">
          <mxGeometry relative="1" as="geometry" />
        </mxCell>
        <mxCell id="asDTR3eWAtD1fAQb5y70-18" style="edgeStyle=orthogonalEdgeStyle;rounded=0;orthogonalLoop=1;jettySize=auto;html=1;exitX=0;exitY=0.75;exitDx=0;exitDy=0;" edge="1" parent="1" source="asDTR3eWAtD1fAQb5y70-3">
          <mxGeometry relative="1" as="geometry">
            <mxPoint x="90" y="260" as="targetPoint" />
          </mxGeometry>
        </mxCell>
        <mxCell id="asDTR3eWAtD1fAQb5y70-3" value="Cache" style="rounded=1;whiteSpace=wrap;html=1;" vertex="1" parent="1">
          <mxGeometry x="140" y="260" width="120" height="60" as="geometry" />
        </mxCell>
        <mxCell id="asDTR3eWAtD1fAQb5y70-10" style="edgeStyle=orthogonalEdgeStyle;rounded=0;orthogonalLoop=1;jettySize=auto;html=1;exitX=1;exitY=0.5;exitDx=0;exitDy=0;entryX=0;entryY=0.25;entryDx=0;entryDy=0;" edge="1" parent="1" source="asDTR3eWAtD1fAQb5y70-4" target="asDTR3eWAtD1fAQb5y70-2">
          <mxGeometry relative="1" as="geometry" />
        </mxCell>
        <mxCell id="asDTR3eWAtD1fAQb5y70-17" style="edgeStyle=orthogonalEdgeStyle;rounded=0;orthogonalLoop=1;jettySize=auto;html=1;exitX=0;exitY=0.75;exitDx=0;exitDy=0;" edge="1" parent="1" source="asDTR3eWAtD1fAQb5y70-4" target="asDTR3eWAtD1fAQb5y70-1">
          <mxGeometry relative="1" as="geometry">
            <mxPoint x="120" y="225" as="targetPoint" />
          </mxGeometry>
        </mxCell>
        <mxCell id="asDTR3eWAtD1fAQb5y70-4" value="Web" style="rounded=1;whiteSpace=wrap;html=1;" vertex="1" parent="1">
          <mxGeometry x="140" y="180" width="120" height="60" as="geometry" />
        </mxCell>
        <mxCell id="asDTR3eWAtD1fAQb5y70-8" style="edgeStyle=orthogonalEdgeStyle;rounded=0;orthogonalLoop=1;jettySize=auto;html=1;exitX=0;exitY=0.25;exitDx=0;exitDy=0;entryX=1;entryY=0.25;entryDx=0;entryDy=0;" edge="1" parent="1" source="asDTR3eWAtD1fAQb5y70-5" target="asDTR3eWAtD1fAQb5y70-2">
          <mxGeometry relative="1" as="geometry" />
        </mxCell>
        <mxCell id="asDTR3eWAtD1fAQb5y70-5" value="SPICE" style="rounded=1;whiteSpace=wrap;html=1;" vertex="1" parent="1">
          <mxGeometry x="490" y="180" width="120" height="120" as="geometry" />
        </mxCell>
        <mxCell id="asDTR3eWAtD1fAQb5y70-7" style="edgeStyle=orthogonalEdgeStyle;rounded=0;orthogonalLoop=1;jettySize=auto;html=1;exitX=0.5;exitY=1;exitDx=0;exitDy=0;entryX=0.5;entryY=0;entryDx=0;entryDy=0;" edge="1" parent="1" source="asDTR3eWAtD1fAQb5y70-6" target="asDTR3eWAtD1fAQb5y70-5">
          <mxGeometry relative="1" as="geometry" />
        </mxCell>
        <mxCell id="asDTR3eWAtD1fAQb5y70-6" value="NASA" style="text;html=1;align=center;verticalAlign=middle;whiteSpace=wrap;rounded=0;" vertex="1" parent="1">
          <mxGeometry x="520" y="120" width="60" height="30" as="geometry" />
        </mxCell>
        <mxCell id="asDTR3eWAtD1fAQb5y70-13" style="edgeStyle=orthogonalEdgeStyle;rounded=0;orthogonalLoop=1;jettySize=auto;html=1;exitX=1;exitY=0.5;exitDx=0;exitDy=0;entryX=-0.014;entryY=0.892;entryDx=0;entryDy=0;entryPerimeter=0;" edge="1" parent="1" source="asDTR3eWAtD1fAQb5y70-3" target="asDTR3eWAtD1fAQb5y70-2">
          <mxGeometry relative="1" as="geometry" />
        </mxCell>
        <mxCell id="asDTR3eWAtD1fAQb5y70-15" value="AWS" style="text;html=1;align=center;verticalAlign=middle;resizable=0;points=[];autosize=1;strokeColor=none;fillColor=none;" vertex="1" parent="1">
          <mxGeometry x="170" y="150" width="50" height="30" as="geometry" />
        </mxCell>
        <mxCell id="asDTR3eWAtD1fAQb5y70-19" style="edgeStyle=orthogonalEdgeStyle;rounded=0;orthogonalLoop=1;jettySize=auto;html=1;exitX=0;exitY=1;exitDx=0;exitDy=0;exitPerimeter=0;entryX=0.275;entryY=1.139;entryDx=0;entryDy=0;entryPerimeter=0;" edge="1" parent="1" source="asDTR3eWAtD1fAQb5y70-1" target="asDTR3eWAtD1fAQb5y70-3">
          <mxGeometry relative="1" as="geometry" />
        </mxCell>
        <mxCell id="asDTR3eWAtD1fAQb5y70-20" value="AWS" style="text;html=1;align=center;verticalAlign=middle;resizable=0;points=[];autosize=1;strokeColor=none;fillColor=none;" vertex="1" parent="1">
          <mxGeometry x="180" y="320" width="50" height="30" as="geometry" />
        </mxCell>
        <mxCell id="asDTR3eWAtD1fAQb5y70-21" value="UPDATE" style="text;html=1;align=center;verticalAlign=middle;resizable=0;points=[];autosize=1;strokeColor=none;fillColor=none;" vertex="1" parent="1">
          <mxGeometry x="290" y="350" width="70" height="30" as="geometry" />
        </mxCell>
      </root>
    </mxGraphModel>
  </diagram>
</mxfile>
